<svg width="1645" height="1024" viewBox="0 0 1645 1024" fill="none" xmlns="http://www.w3.org/2000/svg">
<rect width="1645" height="1024" fill="white"/>
<path d="M1601.55 56.5026C1596.9 56.5026 1593.11 52.7979 1593.11 48.2513C1593.11 43.7046 1596.9 40 1601.55 40C1606.21 40 1610 43.7046 1610 48.2513C1610 52.7979 1606.24 56.5026 1601.55 56.5026ZM1610 97.6186C1610 93.072 1606.21 89.3674 1601.55 89.3674C1596.9 89.3674 1593.11 93.072 1593.11 97.6186C1593.11 102.165 1596.9 105.87 1601.55 105.87C1606.24 105.87 1610 102.193 1610 97.6186ZM1610 146.986C1610 142.439 1606.21 138.735 1601.55 138.735C1596.9 138.735 1593.11 142.439 1593.11 146.986C1593.11 151.533 1596.9 155.237 1601.55 155.237C1606.24 155.237 1610 151.561 1610 146.986ZM1610 196.353C1610 191.807 1606.21 188.102 1601.55 188.102C1596.9 188.102 1593.11 191.807 1593.11 196.353C1593.11 200.9 1596.9 204.605 1601.55 204.605C1606.24 204.633 1610 200.928 1610 196.353ZM1610 245.749C1610 241.202 1606.21 237.497 1601.55 237.497C1596.9 237.497 1593.11 241.202 1593.11 245.749C1593.11 250.295 1596.9 254 1601.55 254C1606.24 254 1610 250.295 1610 245.749ZM1559.47 48.2513C1559.47 43.7046 1555.68 40 1551.03 40C1546.37 40 1542.58 43.7046 1542.58 48.2513C1542.58 52.7979 1546.37 56.5026 1551.03 56.5026C1555.71 56.5026 1559.47 52.7979 1559.47 48.2513ZM1559.47 97.6186C1559.47 93.072 1555.68 89.3674 1551.03 89.3674C1546.37 89.3674 1542.58 93.072 1542.58 97.6186C1542.58 102.165 1546.37 105.87 1551.03 105.87C1555.71 105.87 1559.47 102.193 1559.47 97.6186ZM1559.47 146.986C1559.47 142.439 1555.68 138.735 1551.03 138.735C1546.37 138.735 1542.58 142.439 1542.58 146.986C1542.58 151.533 1546.37 155.237 1551.03 155.237C1555.71 155.237 1559.47 151.561 1559.47 146.986ZM1559.47 196.353C1559.47 191.807 1555.68 188.102 1551.03 188.102C1546.37 188.102 1542.58 191.807 1542.58 196.353C1542.58 200.9 1546.37 204.605 1551.03 204.605C1555.71 204.633 1559.47 200.928 1559.47 196.353ZM1559.47 245.749C1559.47 241.202 1555.68 237.497 1551.03 237.497C1546.37 237.497 1542.58 241.202 1542.58 245.749C1542.58 250.295 1546.37 254 1551.03 254C1555.71 254 1559.47 250.295 1559.47 245.749ZM1508.95 48.2513C1508.95 43.7046 1505.15 40 1500.5 40C1495.85 40 1492.05 43.7046 1492.05 48.2513C1492.05 52.7979 1495.85 56.5026 1500.5 56.5026C1505.15 56.5026 1508.95 52.7979 1508.95 48.2513ZM1508.95 97.6186C1508.95 93.072 1505.15 89.3674 1500.5 89.3674C1495.85 89.3674 1492.05 93.072 1492.05 97.6186C1492.05 102.165 1495.85 105.87 1500.5 105.87C1505.15 105.87 1508.95 102.193 1508.95 97.6186ZM1508.95 146.986C1508.95 142.439 1505.15 138.735 1500.5 138.735C1495.85 138.735 1492.05 142.439 1492.05 146.986C1492.05 151.533 1495.85 155.237 1500.5 155.237C1505.15 155.237 1508.95 151.561 1508.95 146.986ZM1508.95 196.353C1508.95 191.807 1505.15 188.102 1500.5 188.102C1495.85 188.102 1492.05 191.807 1492.05 196.353C1492.05 200.9 1495.85 204.605 1500.5 204.605C1505.15 204.605 1508.95 200.928 1508.95 196.353ZM1508.95 245.749C1508.95 241.202 1505.15 237.497 1500.5 237.497C1495.85 237.497 1492.05 241.202 1492.05 245.749C1492.05 250.295 1495.85 254 1500.5 254C1505.15 254 1508.95 250.295 1508.95 245.749ZM1458.42 48.2513C1458.42 43.7046 1454.63 40 1449.97 40C1445.32 40 1441.53 43.7046 1441.53 48.2513C1441.53 52.7979 1445.32 56.5026 1449.97 56.5026C1454.63 56.5026 1458.42 52.7979 1458.42 48.2513ZM1458.42 97.6186C1458.42 93.072 1454.63 89.3674 1449.97 89.3674C1445.32 89.3674 1441.53 93.072 1441.53 97.6186C1441.53 102.165 1445.32 105.87 1449.97 105.87C1454.63 105.87 1458.42 102.193 1458.42 97.6186ZM1458.42 146.986C1458.42 142.439 1454.63 138.735 1449.97 138.735C1445.32 138.735 1441.53 142.439 1441.53 146.986C1441.53 151.533 1445.32 155.237 1449.97 155.237C1454.63 155.237 1458.42 151.561 1458.42 146.986ZM1458.42 196.353C1458.42 191.807 1454.63 188.102 1449.97 188.102C1445.32 188.102 1441.53 191.807 1441.53 196.353C1441.53 200.9 1445.32 204.605 1449.97 204.605C1454.63 204.633 1458.42 200.928 1458.42 196.353ZM1458.42 245.749C1458.42 241.202 1454.63 237.497 1449.97 237.497C1445.32 237.497 1441.53 241.202 1441.53 245.749C1441.53 250.295 1445.32 254 1449.97 254C1454.63 254 1458.42 250.295 1458.42 245.749ZM1407.89 48.2513C1407.89 43.7046 1404.1 40 1399.45 40C1394.79 40 1391 43.7046 1391 48.2513C1391 52.7979 1394.79 56.5026 1399.45 56.5026C1404.1 56.5026 1407.89 52.7979 1407.89 48.2513ZM1407.89 97.6186C1407.89 93.072 1404.1 89.3674 1399.45 89.3674C1394.79 89.3674 1391 93.072 1391 97.6186C1391 102.165 1394.79 105.87 1399.45 105.87C1404.1 105.87 1407.89 102.193 1407.89 97.6186ZM1407.89 146.986C1407.89 142.439 1404.1 138.735 1399.45 138.735C1394.79 138.735 1391 142.439 1391 146.986C1391 151.533 1394.79 155.237 1399.45 155.237C1404.1 155.237 1407.89 151.561 1407.89 146.986ZM1407.89 196.353C1407.89 191.807 1404.1 188.102 1399.45 188.102C1394.79 188.102 1391 191.807 1391 196.353C1391 200.9 1394.79 204.605 1399.45 204.605C1404.1 204.633 1407.89 200.928 1407.89 196.353ZM1407.89 245.749C1407.89 241.202 1404.1 237.497 1399.45 237.497C1394.79 237.497 1391 241.202 1391 245.749C1391 250.295 1394.79 254 1399.45 254C1404.1 254 1407.89 250.295 1407.89 245.749Z" fill="#00CDDA"/>
<path d="M0.0426025 352.707L0.0426025 371.422H94.3341V352.707H0.0426025Z" fill="#257BE1"/>
<path d="M0 249.877L0 268.591H94.2915V249.877H0Z" fill="#FFC200"/>
<path d="M0.00280762 147L0.00280762 165.714H94.2943V147H0.00280762Z" fill="#FF5C00"/>
<path d="M1459.75 857.751L1391 857.751L1391 926.503L1459.75 926.503L1528.5 926.503L1528.5 857.751L1528.5 789L1459.75 789L1459.75 857.751Z" fill="#FF9D00"/>
<path d="M1558 815.689L1558 956L1417.69 956L1417.69 884.441L1486.44 884.441L1486.44 815.689L1558 815.689ZM1555.19 953.192L1555.19 818.497L1489.25 818.497L1489.25 887.249L1420.5 887.249L1420.5 953.192L1555.19 953.192Z" fill="#0B315E"/>
<path d="M1391.74 843.361L1391.74 847.545L1451.41 847.545L1451.41 843.361L1391.74 843.361Z" fill="#FFC200"/>
<path d="M1391.73 832.705L1391.73 836.889L1451.4 836.889L1451.4 832.705L1391.73 832.705Z" fill="#FFC200"/>
<path d="M1391.74 822.063L1391.74 826.247L1451.41 826.247L1451.41 822.063L1391.74 822.063Z" fill="#FFC200"/>
<path d="M1391.74 811.421L1391.74 815.605L1451.41 815.605L1451.41 811.421L1391.74 811.421Z" fill="#FFC200"/>
<path d="M1391.73 800.779L1391.73 804.963L1451.4 804.963L1451.4 800.779L1391.73 800.779Z" fill="#FFC200"/>
<path d="M1391.74 790.264L1391.74 794.321L1451.41 794.321L1451.41 790.264L1391.74 790.264Z" fill="#FFC200"/>
</svg>
