<svg width="167" height="167" viewBox="0 0 167 167" fill="none" xmlns="http://www.w3.org/2000/svg">
<path d="M98.2485 68.7515V0H29.497V68.7515V137.503H98.2485H167V68.7515H98.2485Z" fill="#FF9D00"/>
<path d="M140.311 167H0V26.6891H71.5594V95.4406H140.311V167ZM2.8079 164.192H137.503V98.2485H68.7515V29.497H2.8079V164.192Z" fill="#0B315E"/>
<path d="M112.639 0.74411H108.455V60.412H112.639V0.74411Z" fill="#FFC200"/>
<path d="M123.295 0.730103H119.111V60.398H123.295V0.730103Z" fill="#FFC200"/>
<path d="M133.937 0.74411H129.753V60.412H133.937V0.74411Z" fill="#FFC200"/>
<path d="M144.579 0.74411H140.395V60.412H144.579V0.74411Z" fill="#FFC200"/>
<path d="M155.221 0.730103H151.037V60.398H155.221V0.730103Z" fill="#FFC200"/>
<path d="M165.736 0.74411H161.679V60.412H165.736V0.74411Z" fill="#FFC200"/>
</svg>
