<svg width="280" height="208" viewBox="0 0 280 208" fill="none" xmlns="http://www.w3.org/2000/svg">
<path d="M289.393 -57.791C282.997 -57.791 277.785 -62.7767 277.785 -68.8955C277.785 -75.0143 282.997 -80 289.393 -80C295.789 -80 301 -75.0143 301 -68.8955C301 -62.7767 295.828 -57.791 289.393 -57.791ZM301 -2.45721C301 -8.57603 295.789 -13.5617 289.393 -13.5617C282.997 -13.5617 277.785 -8.57603 277.785 -2.45721C277.785 3.66161 282.997 8.64733 289.393 8.64733C295.828 8.64733 301 3.69939 301 -2.45721ZM301 63.9811C301 57.8623 295.789 52.8766 289.393 52.8766C282.997 52.8766 277.785 57.8623 277.785 63.9811C277.785 70.1 282.997 75.0857 289.393 75.0857C295.828 75.0857 301 70.1377 301 63.9811ZM301 130.419C301 124.301 295.789 119.315 289.393 119.315C282.997 119.315 277.785 124.301 277.785 130.419C277.785 136.538 282.997 141.524 289.393 141.524C295.828 141.562 301 136.576 301 130.419ZM301 196.896C301 190.777 295.789 185.791 289.393 185.791C282.997 185.791 277.785 190.777 277.785 196.896C277.785 203.014 282.997 208 289.393 208C295.828 208 301 203.014 301 196.896ZM231.554 -68.8955C231.554 -75.0143 226.342 -80 219.946 -80C213.55 -80 208.339 -75.0143 208.339 -68.8955C208.339 -62.7767 213.55 -57.791 219.946 -57.791C226.382 -57.791 231.554 -62.7767 231.554 -68.8955ZM231.554 -2.45721C231.554 -8.57603 226.342 -13.5617 219.946 -13.5617C213.55 -13.5617 208.339 -8.57603 208.339 -2.45721C208.339 3.66161 213.55 8.64733 219.946 8.64733C226.382 8.64733 231.554 3.69939 231.554 -2.45721ZM231.554 63.9811C231.554 57.8623 226.342 52.8766 219.946 52.8766C213.55 52.8766 208.339 57.8623 208.339 63.9811C208.339 70.1 213.55 75.0857 219.946 75.0857C226.382 75.0857 231.554 70.1377 231.554 63.9811ZM231.554 130.419C231.554 124.301 226.342 119.315 219.946 119.315C213.55 119.315 208.339 124.301 208.339 130.419C208.339 136.538 213.55 141.524 219.946 141.524C226.382 141.562 231.554 136.576 231.554 130.419ZM231.554 196.896C231.554 190.777 226.342 185.791 219.946 185.791C213.55 185.791 208.339 190.777 208.339 196.896C208.339 203.014 213.55 208 219.946 208C226.382 208 231.554 203.014 231.554 196.896ZM162.107 -68.8955C162.107 -75.0143 156.896 -80 150.5 -80C144.104 -80 138.893 -75.0143 138.893 -68.8955C138.893 -62.7767 144.104 -57.791 150.5 -57.791C156.896 -57.791 162.107 -62.7767 162.107 -68.8955ZM162.107 -2.45721C162.107 -8.57603 156.896 -13.5617 150.5 -13.5617C144.104 -13.5617 138.893 -8.57603 138.893 -2.45721C138.893 3.66161 144.104 8.64733 150.5 8.64733C156.896 8.64733 162.107 3.69939 162.107 -2.45721ZM162.107 63.9811C162.107 57.8623 156.896 52.8766 150.5 52.8766C144.104 52.8766 138.893 57.8623 138.893 63.9811C138.893 70.1 144.104 75.0857 150.5 75.0857C156.896 75.0857 162.107 70.1377 162.107 63.9811ZM162.107 130.419C162.107 124.301 156.896 119.315 150.5 119.315C144.104 119.315 138.893 124.301 138.893 130.419C138.893 136.538 144.104 141.524 150.5 141.524C156.896 141.524 162.107 136.576 162.107 130.419ZM162.107 196.896C162.107 190.777 156.896 185.791 150.5 185.791C144.104 185.791 138.893 190.777 138.893 196.896C138.893 203.014 144.104 208 150.5 208C156.896 208 162.107 203.014 162.107 196.896ZM92.661 -68.8955C92.661 -75.0143 87.4495 -80 81.0536 -80C74.6578 -80 69.4464 -75.0143 69.4464 -68.8955C69.4464 -62.7767 74.6578 -57.791 81.0536 -57.791C87.4495 -57.791 92.661 -62.7767 92.661 -68.8955ZM92.661 -2.45721C92.661 -8.57603 87.4495 -13.5617 81.0536 -13.5617C74.6578 -13.5617 69.4464 -8.57603 69.4464 -2.45721C69.4464 3.66161 74.6578 8.64733 81.0536 8.64733C87.4495 8.64733 92.661 3.69939 92.661 -2.45721ZM92.661 63.9811C92.661 57.8623 87.4495 52.8766 81.0536 52.8766C74.6578 52.8766 69.4464 57.8623 69.4464 63.9811C69.4464 70.1 74.6578 75.0857 81.0536 75.0857C87.4495 75.0857 92.661 70.1377 92.661 63.9811ZM92.661 130.419C92.661 124.301 87.4495 119.315 81.0536 119.315C74.6578 119.315 69.4464 124.301 69.4464 130.419C69.4464 136.538 74.6578 141.524 81.0536 141.524C87.4495 141.562 92.661 136.576 92.661 130.419ZM92.661 196.896C92.661 190.777 87.4495 185.791 81.0536 185.791C74.6578 185.791 69.4464 190.777 69.4464 196.896C69.4464 203.014 74.6578 208 81.0536 208C87.4495 208 92.661 203.014 92.661 196.896ZM23.2146 -68.8955C23.2146 -75.0143 18.0032 -80 11.6073 -80C5.21145 -80 0 -75.0143 0 -68.8955C0 -62.7767 5.21145 -57.791 11.6073 -57.791C18.0032 -57.791 23.2146 -62.7767 23.2146 -68.8955ZM23.2146 -2.45721C23.2146 -8.57603 18.0032 -13.5617 11.6073 -13.5617C5.21145 -13.5617 0 -8.57603 0 -2.45721C0 3.66161 5.21145 8.64733 11.6073 8.64733C18.0032 8.64733 23.2146 3.69939 23.2146 -2.45721ZM23.2146 63.9811C23.2146 57.8623 18.0032 52.8766 11.6073 52.8766C5.21145 52.8766 0 57.8623 0 63.9811C0 70.1 5.21145 75.0857 11.6073 75.0857C18.0032 75.0857 23.2146 70.1377 23.2146 63.9811ZM23.2146 130.419C23.2146 124.301 18.0032 119.315 11.6073 119.315C5.21145 119.315 0 124.301 0 130.419C0 136.538 5.21145 141.524 11.6073 141.524C18.0032 141.562 23.2146 136.576 23.2146 130.419ZM23.2146 196.896C23.2146 190.777 18.0032 185.791 11.6073 185.791C5.21145 185.791 0 190.777 0 196.896C0 203.014 5.21145 208 11.6073 208C18.0032 208 23.2146 203.014 23.2146 196.896Z" fill="#FFC263"/>
</svg>
